<?xml version="1.0" encoding="utf-8"?>
<!-- Svg Vector Icons : http://www.onlinewebfonts.com/icon -->
<!DOCTYPE svg PUBLIC "-//W3C//DTD SVG 1.1//EN" "http://www.w3.org/Graphics/SVG/1.1/DTD/svg11.dtd">
<svg version="1.1" xmlns="http://www.w3.org/2000/svg" xmlns:xlink="http://www.w3.org/1999/xlink" x="0px" y="0px" viewBox="0 0 256 256" enable-background="new 0 0 256 256" xml:space="preserve">
<metadata> Svg Vector Icons : http://www.onlinewebfonts.com/icon </metadata>
<g><g><path fill="#000000" d="M10,18.2L10,18.2L10,18.2L10,18.2z M229.9,71.9c4.3,0,7.6,0.6,9.9,1.7c1.2,0.5,2.1,1.1,3,1.7c0.8,0.7,1.5,1.4,2,2.2c1,1.6,1.4,3.4,1.2,5.2c0,0.7,0,1.3-0.1,1.9c-0.1,0.6-0.2,1.1-0.2,1.6c-0.1,0.5-0.2,1-0.4,1.5l-3,8.1l-4.7,13.5l-5.2,14.5c-2.1,6.2-3.4,10.1-3.9,11.6c-1,2.8-2.1,5.2-3.3,7.3s-2.6,3.7-4.1,4.8c-3,2.3-6.6,3.4-10.9,3.4H92.8l3.5,19.7h112.4c7.2,0,10.8,3,10.8,9.1c0,3-0.7,5.5-2.2,7.6c-1.3,2.1-4.1,3.2-8.4,3.2H91.8c-1,0-1.9-0.1-2.8-0.2c-0.9-0.2-1.7-0.4-2.5-0.6c-0.7-0.2-1.4-0.6-2.1-1.1c-2-1.3-3.6-3-4.9-5.2c-0.6-1-1.3-2-1.9-3.2s-1.1-2.4-1.6-3.7c-0.8-3.1-1.4-5.5-1.7-7.2l-1.2-6.4l-2.5-12.6l-3.2-17l-3.7-19L54.1,65H37.4c-2.3,0-4.1-0.5-5.4-1.5c-1.5-1.2-2.8-2.5-3.9-3.9c-0.3-1-0.7-1.9-1.1-2.7c-0.4-0.8-0.7-1.6-0.9-2.5c-0.2-0.8-0.3-1.6-0.4-2.5c-0.1-0.8-0.1-1.6-0.1-2.2c0-3,1-5.4,3-7.4c1.2-0.8,2.4-1.5,3.7-2c1.3-0.5,2.8-0.7,4.4-0.7h22.7c3,0,5.3,0.4,7.2,1.2c0.8,0.5,1.6,1,2.3,1.5c0.7,0.5,1.4,1.1,2.1,1.7c1,1.5,1.6,2.9,2,4.2l1.2,3.9c0.2,0.7,0.4,1.9,0.7,3.7v1.2l1,6.4l1.2,8.4L229.9,71.9L229.9,71.9z M192.5,197.2c1.3,0,2.7,0.1,4.1,0.4c1.4,0.2,2.7,0.6,4.1,1.1c2.6,1,4.8,2.5,6.7,4.4c2,2,3.5,4.1,4.7,6.4c1,2.5,1.5,5.1,1.5,7.9c0,1.3-0.1,2.7-0.4,4.1c-0.2,1.4-0.6,2.7-1.1,3.8c-1.2,2.3-2.7,4.5-4.7,6.6c-1.8,1.8-4,3.2-6.6,4.2c-2.5,1.2-5.2,1.7-8.1,1.7c-3,0-5.7-0.6-8.1-1.7c-2.6-1.2-4.8-2.6-6.4-4.2c-2-2.1-3.4-4.4-4.4-6.6c-1.2-2.5-1.7-5.1-1.7-7.9c0-1.3,0.1-2.6,0.4-3.9c0.2-1.3,0.7-2.6,1.3-3.9c1-2.3,2.5-4.4,4.4-6.4c0.8-1,1.8-1.9,3-2.6c1.2-0.7,2.3-1.3,3.5-1.9c0.8-0.3,1.7-0.6,2.6-0.9c0.9-0.2,1.8-0.4,2.7-0.5C190.5,197.2,191.5,197.2,192.5,197.2L192.5,197.2z M99.5,196.7c2.8,0,5.5,0.5,8.1,1.5c2.5,1,4.7,2.5,6.7,4.4c1,1,1.9,2,2.6,3.1c0.7,1.1,1.3,2.2,1.9,3.3c1.2,2.6,1.7,5.3,1.7,8s-0.6,5.3-1.7,7.8c-1,2.3-2.5,4.5-4.4,6.7c-2,1.8-4.2,3.3-6.8,4.3c-2.6,1.1-5.2,1.6-8,1.6c-3,0-5.7-0.5-8.1-1.5c-2.5-1.2-4.7-2.6-6.7-4.4c-2-2.1-3.4-4.4-4.4-6.7c-1-2.5-1.5-5.1-1.5-7.8s0.5-5.4,1.5-8c0.5-1.2,1.1-2.3,1.9-3.3c0.7-1.1,1.6-2.1,2.6-3.1c0.6-0.7,1.4-1.2,2.2-1.7l2-1.5c0.8-0.5,1.6-0.9,2.5-1.2c0.7-0.2,1.3-0.4,2-0.6c0.7-0.2,1.3-0.4,2-0.5c0.6-0.1,1.3-0.2,2.1-0.2C98.1,196.7,98.8,196.7,99.5,196.7L99.5,196.7z"/></g></g>
</svg>